<?xml version="1.0" encoding="utf-8"?>
<!-- Generator: Adobe Illustrator 19.0.0, SVG Export Plug-In . SVG Version: 6.00 Build 0)  -->
<svg version="1.1" id="Layer_1" xmlns="http://www.w3.org/2000/svg" xmlns:xlink="http://www.w3.org/1999/xlink" x="0px" y="0px"
	 viewBox="0 0 88 29.1" style="enable-background:new 0 0 88 29.1;" xml:space="preserve">
<style type="text/css">
	.st0{fill:#00467F;}
	.st1{fill:#FFFFFF;}
</style>
<g id="XMLID_107_">
	<polygon id="XMLID_402_" class="st0" points="0,4.4 4.4,0 88,0 88,24.6 83.6,29.1 0,29.1 	"/>
	<polygon id="XMLID_401_" class="st1" points="31.7,19.2 32,19.2 32,17.4 32.6,17.4 32.6,17.2 31.1,17.2 31.1,17.4 31.7,17.4 	"/>
	<path id="XMLID_540_" class="st1" d="M33.1,17.8c-0.3,0-0.6,0.3-0.6,0.7c0,0.4,0.2,0.7,0.6,0.7c0.2,0,0.3-0.1,0.5-0.2v-0.2
		c-0.1,0.1-0.3,0.2-0.4,0.2c-0.2,0-0.4-0.1-0.4-0.4h0.8C33.6,18.1,33.4,17.8,33.1,17.8z M32.8,18.4c0-0.2,0.1-0.3,0.3-0.3
		c0.2,0,0.3,0.1,0.3,0.3H32.8z"/>
	<polygon id="XMLID_398_" class="st1" points="35.9,17.2 35.7,17.2 35.1,18.6 34.6,17.2 34.4,17.2 35.1,19.2 35.2,19.2 35.8,17.6 
		36.4,19.2 36.4,19.2 37.2,17.2 36.9,17.2 36.4,18.6 	"/>
	<path id="XMLID_397_" class="st1" d="M38.5,19.2v-0.8c0-0.4-0.2-0.6-0.4-0.6c-0.1,0-0.3,0.1-0.4,0.2l0,0v-0.9h-0.2v2h0.2v-0.9
		c0.1-0.1,0.2-0.2,0.3-0.2c0.1,0,0.2,0.1,0.2,0.3v0.8L38.5,19.2L38.5,19.2z"/>
	<path id="XMLID_535_" class="st1" d="M39.3,18.5c-0.2,0.1-0.4,0.2-0.4,0.4c0,0.2,0.1,0.3,0.3,0.3c0.1,0,0.2,0,0.3-0.1
		c0,0.1,0.1,0.1,0.2,0.1c0.1,0,0.1,0,0.2-0.1v-0.2c-0.1,0-0.1,0.1-0.1,0.1c0,0,0,0,0-0.1v-0.7c0-0.3-0.2-0.4-0.4-0.4
		c-0.2,0-0.3,0.1-0.4,0.2v0.3c0.1-0.1,0.3-0.2,0.4-0.2c0.1,0,0.2,0.1,0.2,0.2v0.1L39.3,18.5z M39.5,18.9C39.4,19,39.4,19,39.3,19
		c-0.1,0-0.2-0.1-0.2-0.2c0-0.2,0.2-0.2,0.4-0.3L39.5,18.9L39.5,18.9L39.5,18.9z"/>
	<path id="XMLID_394_" class="st1" d="M40.3,17.9v1.3h0.2v-0.7c0-0.2,0.1-0.4,0.3-0.4c0.1,0,0.1,0.1,0.2,0.1l0.1-0.2
		c-0.1-0.1-0.2-0.1-0.3-0.1s-0.2,0.1-0.3,0.3l0,0v-0.3L40.3,17.9L40.3,17.9L40.3,17.9z"/>
	<path id="XMLID_531_" class="st1" d="M41.9,17.8c-0.3,0-0.6,0.3-0.6,0.7c0,0.4,0.2,0.7,0.6,0.7c0.2,0,0.3-0.1,0.5-0.2v-0.2
		C42.3,18.9,42.1,19,42,19c-0.2,0-0.4-0.1-0.4-0.4h0.8C42.4,18.1,42.2,17.8,41.9,17.8z M41.6,18.4c0-0.2,0.1-0.3,0.3-0.3
		c0.2,0,0.3,0.1,0.3,0.3H41.6z"/>
	<polygon id="XMLID_391_" class="st1" points="44.7,17.2 44.5,17.2 44,18.6 43.5,17.2 43.2,17.2 43.9,19.2 44,19.2 44.6,17.6 
		45.2,19.2 45.2,19.2 46,17.2 45.7,17.2 45.2,18.6 	"/>
	<path id="XMLID_527_" class="st1" d="M46.5,18.5c-0.2,0.1-0.4,0.2-0.4,0.4c0,0.2,0.1,0.3,0.3,0.3c0.1,0,0.2,0,0.3-0.1
		c0,0.1,0.1,0.1,0.2,0.1c0.1,0,0.1,0,0.2-0.1v-0.2C47,19,47,19,47,19c0,0,0,0,0-0.1v-0.7c0-0.3-0.2-0.4-0.4-0.4
		c-0.2,0-0.3,0.1-0.4,0.2v0.3c0.1-0.1,0.3-0.2,0.4-0.2c0.1,0,0.2,0.1,0.2,0.2v0.1L46.5,18.5z M46.7,18.9C46.6,19,46.5,19,46.5,19
		c-0.1,0-0.2-0.1-0.2-0.2c0-0.2,0.2-0.2,0.4-0.3L46.7,18.9L46.7,18.9L46.7,18.9z"/>
	<path id="XMLID_388_" class="st1" d="M48.4,19.2v-0.8c0-0.4-0.2-0.5-0.4-0.5c-0.1,0-0.3,0.1-0.4,0.2l0,0v-0.2h-0.2v1.3h0.2v-0.9
		c0.1-0.1,0.2-0.2,0.3-0.2c0.1,0,0.2,0.1,0.2,0.3v0.8L48.4,19.2L48.4,19.2z"/>
	<path id="XMLID_523_" class="st1" d="M49.2,18.5c-0.2,0.1-0.4,0.2-0.4,0.4c0,0.2,0.1,0.3,0.3,0.3c0.1,0,0.2,0,0.3-0.1
		c0,0.1,0.1,0.1,0.2,0.1c0.1,0,0.1,0,0.2-0.1v-0.2c-0.1,0-0.1,0.1-0.1,0.1c0,0,0,0,0-0.1v-0.7c0-0.3-0.2-0.4-0.4-0.4
		c-0.2,0-0.3,0.1-0.4,0.2v0.3c0.1-0.1,0.3-0.2,0.4-0.2c0.1,0,0.2,0.1,0.2,0.2v0.1L49.2,18.5z M49.4,18.9C49.4,19,49.3,19,49.2,19
		c-0.1,0-0.2-0.1-0.2-0.2c0-0.2,0.2-0.2,0.4-0.3L49.4,18.9L49.4,18.9L49.4,18.9z"/>
	<path id="XMLID_385_" class="st1" d="M51.2,19.2v-0.8c0-0.4-0.2-0.5-0.4-0.5c-0.1,0-0.3,0.1-0.4,0.2l0,0v-0.2h-0.2v1.3h0.2v-0.9
		c0.1-0.1,0.2-0.2,0.3-0.2c0.1,0,0.2,0.1,0.2,0.3v0.8L51.2,19.2L51.2,19.2z"/>
	<path id="XMLID_518_" class="st1" d="M52.6,17.9h-0.5c-0.3,0-0.5,0.2-0.5,0.5c0,0.1,0,0.2,0.1,0.3c0,0.1,0.1,0.1,0.2,0.2l0,0
		c-0.1,0-0.2,0.1-0.2,0.2c0,0.1,0,0.1,0.1,0.2c-0.2,0.1-0.3,0.2-0.3,0.4c0,0.2,0.2,0.4,0.6,0.4c0.3,0,0.6-0.2,0.6-0.4
		c0-0.2-0.1-0.3-0.3-0.4C52,19,51.9,19,51.9,18.9c0-0.2,0.3-0.1,0.5-0.3c0.1-0.1,0.1-0.2,0.1-0.3c0-0.1,0-0.2-0.1-0.3h0.2L52.6,17.9
		L52.6,17.9L52.6,17.9z M52,19.3c0.1,0,0.4,0,0.4,0.2c0,0.1-0.1,0.2-0.3,0.2c-0.2,0-0.3-0.1-0.3-0.2C51.7,19.3,51.8,19.3,52,19.3z
		 M52.1,18.6c-0.1,0-0.2-0.1-0.2-0.2c0-0.1,0.1-0.2,0.2-0.2c0.1,0,0.2,0.1,0.2,0.2S52.2,18.6,52.1,18.6z"/>
	<path id="XMLID_515_" class="st1" d="M53.3,18.5c-0.2,0.1-0.4,0.2-0.4,0.4c0,0.2,0.1,0.3,0.3,0.3c0.1,0,0.2,0,0.3-0.1
		c0,0.1,0.1,0.1,0.2,0.1c0.1,0,0.1,0,0.2-0.1v-0.2c-0.1,0-0.1,0.1-0.1,0.1c0,0,0,0,0-0.1v-0.7c0-0.3-0.2-0.4-0.4-0.4
		c-0.2,0-0.3,0.1-0.4,0.2v0.3c0.1-0.1,0.3-0.2,0.4-0.2c0.1,0,0.2,0.1,0.2,0.2v0.1L53.3,18.5z M53.5,18.9C53.4,19,53.4,19,53.3,19
		c-0.1,0-0.2-0.1-0.2-0.2c0-0.2,0.2-0.2,0.4-0.3L53.5,18.9L53.5,18.9L53.5,18.9z"/>
	<path id="XMLID_512_" class="st1" d="M55.7,19.2c0.4,0,0.6-0.3,0.6-0.7c0-0.4-0.3-0.7-0.6-0.7c-0.4,0-0.6,0.3-0.6,0.7
		C55.1,18.9,55.3,19.2,55.7,19.2z M55.7,18.1c0.2,0,0.4,0.2,0.4,0.4c0,0.3-0.2,0.5-0.4,0.5s-0.4-0.2-0.4-0.5
		C55.3,18.3,55.5,18.1,55.7,18.1z"/>
	<polygon id="XMLID_377_" class="st1" points="58.1,19.2 58.1,17.4 58.7,17.4 58.7,17.2 57.2,17.2 57.2,17.4 57.8,17.4 57.8,19.2 	
		"/>
	<path id="XMLID_508_" class="st1" d="M59,18.5c-0.2,0.1-0.4,0.2-0.4,0.4c0,0.2,0.1,0.3,0.3,0.3c0.1,0,0.2,0,0.3-0.1
		c0,0.1,0.1,0.1,0.2,0.1c0.1,0,0.1,0,0.2-0.1v-0.2c-0.1,0-0.1,0.1-0.1,0.1c0,0,0,0,0-0.1v-0.7c0-0.3-0.2-0.4-0.4-0.4
		c-0.2,0-0.3,0.1-0.4,0.2v0.3c0.1-0.1,0.3-0.2,0.4-0.2c0.1,0,0.2,0.1,0.2,0.2v0.1L59,18.5z M59.2,18.9C59.2,19,59.1,19,59,19
		c-0.1,0-0.2-0.1-0.2-0.2c0-0.2,0.2-0.2,0.4-0.3L59.2,18.9L59.2,18.9L59.2,18.9z"/>
	<path id="XMLID_374_" class="st1" d="M61.8,19.2v-0.8c0-0.3-0.1-0.5-0.4-0.5c-0.2,0-0.3,0.1-0.4,0.2c-0.1-0.2-0.2-0.2-0.4-0.2
		c-0.1,0-0.2,0.1-0.3,0.2v-0.2h-0.2v1.3h0.2v-1c0.1-0.1,0.2-0.2,0.3-0.2c0.1,0,0.2,0.1,0.2,0.3v0.8h0.2v-1c0.1-0.1,0.2-0.2,0.3-0.2
		c0.1,0,0.3,0.1,0.3,0.3v0.8L61.8,19.2L61.8,19.2z"/>
	<path id="XMLID_504_" class="st1" d="M62.7,18.5c-0.2,0.1-0.4,0.2-0.4,0.4c0,0.2,0.1,0.3,0.3,0.3c0.1,0,0.2,0,0.3-0.1
		c0,0.1,0.1,0.1,0.2,0.1c0.1,0,0.1,0,0.2-0.1v-0.2c-0.1,0-0.1,0.1-0.1,0.1c0,0,0,0,0-0.1v-0.7c0-0.3-0.2-0.4-0.4-0.4
		c-0.2,0-0.3,0.1-0.4,0.2v0.3c0.1-0.1,0.3-0.2,0.4-0.2c0.1,0,0.2,0.1,0.2,0.2v0.1L62.7,18.5z M62.9,18.9C62.9,19,62.8,19,62.7,19
		c-0.1,0-0.2-0.1-0.2-0.2c0-0.2,0.2-0.2,0.4-0.3L62.9,18.9L62.9,18.9L62.9,18.9z"/>
	<polygon id="XMLID_371_" class="st1" points="64.6,17.9 64,18.5 64.6,19.2 64.9,19.2 64.3,18.5 64.8,17.9 	"/>
	<rect id="XMLID_370_" x="63.8" y="17.2" class="st1" width="0.2" height="2"/>
	<path id="XMLID_369_" class="st1" d="M65.4,17.3c-0.1,0-0.1,0.1-0.1,0.2s0.1,0.2,0.1,0.2c0.1,0,0.1-0.1,0.1-0.2
		C65.5,17.4,65.5,17.3,65.4,17.3z"/>
	<rect id="XMLID_368_" x="65.3" y="17.9" class="st1" width="0.2" height="1.3"/>
	<polygon id="XMLID_367_" class="st1" points="68.8,19.2 68.8,17.2 68.6,17.2 68,18 67.4,17.2 67.1,17.2 67.1,19.2 67.4,19.2 
		67.4,17.6 67.4,17.6 67.9,18.4 68,18.4 68.6,17.6 68.6,17.6 68.6,19.2 	"/>
	<path id="XMLID_496_" class="st1" d="M69.7,18.5c-0.2,0.1-0.4,0.2-0.4,0.4c0,0.2,0.1,0.3,0.3,0.3c0.1,0,0.2,0,0.3-0.1
		c0,0.1,0.1,0.1,0.2,0.1c0.1,0,0.1,0,0.2-0.1v-0.2c-0.1,0-0.1,0.1-0.1,0.1c0,0,0,0,0-0.1v-0.7c0-0.3-0.2-0.4-0.4-0.4
		c-0.2,0-0.3,0.1-0.4,0.2v0.3c0.1-0.1,0.3-0.2,0.4-0.2c0.1,0,0.2,0.1,0.2,0.2v0.1L69.7,18.5z M69.9,18.9C69.9,19,69.8,19,69.7,19
		c-0.1,0-0.2-0.1-0.2-0.2c0-0.2,0.2-0.2,0.4-0.3L69.9,18.9L69.9,18.9L69.9,18.9z"/>
	<polygon id="XMLID_364_" class="st1" points="71.6,17.9 71,18.5 71.6,19.2 72,19.2 71.3,18.5 71.9,17.9 	"/>
	<rect id="XMLID_363_" x="70.8" y="17.2" class="st1" width="0.2" height="2"/>
	<path id="XMLID_491_" class="st1" d="M72.2,18v0.3c0.1-0.1,0.3-0.2,0.4-0.2c0.1,0,0.2,0.1,0.2,0.2v0.1l-0.2,0.1
		c-0.2,0.1-0.4,0.2-0.4,0.4c0,0.2,0.1,0.3,0.3,0.3c0.1,0,0.2,0,0.3-0.1c0,0.1,0.1,0.1,0.2,0.1c0.1,0,0.1,0,0.2-0.1V19
		c-0.1,0-0.1,0.1-0.1,0.1c0,0,0,0,0-0.1v-0.7c0-0.3-0.2-0.4-0.4-0.4C72.5,17.8,72.3,17.9,72.2,18z M72.8,18.9
		C72.8,19,72.7,19,72.6,19c-0.1,0-0.2-0.1-0.2-0.2c0-0.2,0.2-0.2,0.4-0.3L72.8,18.9L72.8,18.9L72.8,18.9z"/>
	<path id="XMLID_360_" class="st1" d="M74.7,19.2v-1.3h-0.2v0.9c-0.1,0.1-0.2,0.2-0.3,0.2c-0.2,0-0.2-0.1-0.2-0.3v-0.8h-0.2v0.8
		c0,0.3,0.2,0.5,0.4,0.5c0.1,0,0.3-0.1,0.3-0.2v0.2L74.7,19.2L74.7,19.2L74.7,19.2z"/>
	<path id="XMLID_359_" class="st1" d="M75.3,17.9v1.3h0.2v-0.7c0-0.2,0.1-0.4,0.3-0.4c0.1,0,0.1,0.1,0.2,0.1l0.1-0.2
		c-0.1-0.1-0.2-0.1-0.3-0.1c-0.1,0-0.2,0.1-0.3,0.3l0,0v-0.3L75.3,17.9L75.3,17.9L75.3,17.9z"/>
	<path id="XMLID_486_" class="st1" d="M76.9,18.5c-0.2,0.1-0.4,0.2-0.4,0.4c0,0.2,0.1,0.3,0.3,0.3c0.1,0,0.2,0,0.3-0.1
		c0,0.1,0.1,0.1,0.2,0.1c0.1,0,0.1,0,0.2-0.1v-0.2c-0.1,0-0.1,0.1-0.1,0.1c0,0,0,0,0-0.1v-0.7c0-0.3-0.2-0.4-0.4-0.4
		c-0.2,0-0.3,0.1-0.4,0.2v0.3c0.1-0.1,0.3-0.2,0.4-0.2c0.1,0,0.2,0.1,0.2,0.2v0.1L76.9,18.5z M77.1,18.9C77,19,76.9,19,76.9,19
		c-0.1,0-0.2-0.1-0.2-0.2c0-0.2,0.2-0.2,0.4-0.3L77.1,18.9L77.1,18.9L77.1,18.9z"/>
	<path id="XMLID_356_" class="st1" d="M78.9,19.2v-1.3h-0.2v0.9c-0.1,0.1-0.2,0.2-0.3,0.2c-0.2,0-0.2-0.1-0.2-0.3v-0.8h-0.2v0.8
		c0,0.3,0.2,0.5,0.4,0.5c0.1,0,0.3-0.1,0.3-0.2v0.2L78.9,19.2L78.9,19.2z"/>
	<rect id="XMLID_355_" x="46.1" y="17.5" class="st1" width="0.7" height="0.1"/>
	<rect id="XMLID_354_" x="58.7" y="17.5" class="st1" width="0.7" height="0.1"/>
	<polygon id="XMLID_353_" class="st1" points="40.2,7.5 38.8,7.5 38.8,6.5 40.2,6.5 40.2,5.9 38.8,5.9 38.8,5 40.2,5 40.2,4.4 
		38.3,4.4 38.3,8.1 40.2,8.1 	"/>
	<polygon id="XMLID_352_" class="st1" points="57.1,5 57.1,4.4 55.2,4.4 55.2,8.1 57.2,8.1 57.2,7.5 55.8,7.5 55.8,6.5 57.1,6.5 
		57.1,5.9 55.8,5.9 55.8,5 	"/>
	<polygon id="XMLID_351_" class="st1" points="35,6.5 36.7,6.5 36.7,8.1 37.3,8.1 37.3,4.4 36.7,4.4 36.7,5.9 35,5.9 35,4.4 
		34.4,4.4 34.4,8.1 35,8.1 	"/>
	<path id="XMLID_350_" class="st1" d="M43.8,8.1c0.5,0,0.9-0.1,1.1-0.4c0.2-0.3,0.4-0.6,0.4-1.1V4.4h-0.6v2.1c0,0.4-0.1,0.6-0.2,0.7
		c-0.1,0.1-0.3,0.3-0.7,0.3c-0.3,0-0.5-0.1-0.6-0.3C43,7.1,43,6.9,43,6.6V4.4h-0.6v2.3c0,0.5,0.1,0.8,0.4,1.1
		C43.1,8,43.4,8.1,43.8,8.1z"/>
	<path id="XMLID_349_" class="st1" d="M49.2,8.1V4.4h-0.6c0,0,0,2.5,0,2.6c-0.1-0.1-2.1-2.6-2.1-2.6h-0.5v3.7h0.6c0,0,0-2.5,0-2.6
		c0.1,0.1,2,2.6,2,2.6L49.2,8.1L49.2,8.1z"/>
	<path id="XMLID_348_" class="st1" d="M54.5,4.4h-0.6c0,0-0.9,2.3-0.9,2.4c0-0.1-0.9-2.4-0.9-2.4h-0.6l1.4,3.7h0.2L54.5,4.4z"/>
	<path id="XMLID_474_" class="st1" d="M60.2,8.1h0.7l-0.1-0.1c-0.2-0.3-0.3-0.4-0.4-0.6c-0.1-0.2-0.2-0.4-0.3-0.6
		c-0.1-0.1-0.2-0.3-0.3-0.3c0.3-0.2,0.5-0.5,0.5-0.9c0-0.3-0.1-0.6-0.3-0.8c-0.2-0.2-0.5-0.3-0.8-0.3h-0.9v3.7h0.6c0,0,0-1.5,0-1.5
		c0,0,0.1,0,0.1,0c0.2,0,0.4,0.1,0.8,0.8L60.2,8.1z M59.6,5.5c0,0.1,0,0.3-0.1,0.3c-0.1,0.1-0.2,0.1-0.4,0.1c0,0-0.2,0-0.2,0
		c0,0,0-0.9,0-1c0,0,0.2,0,0.2,0C59.4,5,59.6,5.1,59.6,5.5L59.6,5.5z"/>
	<path id="XMLID_345_" class="st1" d="M62.3,5c0.2,0,0.5,0.1,0.7,0.3l0.1,0.1l0,0V4.7l0,0l0,0c-0.2-0.2-0.5-0.3-0.8-0.3
		c-0.3,0-0.6,0.1-0.8,0.3s-0.3,0.4-0.3,0.7c0,0.5,0.3,0.8,0.7,1l0.1,0.1l0.2,0.1c0.1,0.1,0.2,0.1,0.2,0.2c0.1,0.1,0.2,0.3,0.2,0.4
		s-0.1,0.4-0.5,0.4c-0.3,0-0.6-0.2-0.8-0.5l-0.1-0.1l0,0l0,0.9l0,0c0.3,0.2,0.6,0.3,0.9,0.3c0.3,0,0.5-0.1,0.7-0.3
		c0.2-0.2,0.3-0.4,0.3-0.7c0-0.6-0.4-0.9-0.7-1.1l-0.3-0.2c-0.1-0.1-0.2-0.1-0.2-0.1c-0.1-0.1-0.2-0.2-0.2-0.4C61.9,5.1,62,5,62.3,5
		z"/>
	<path id="XMLID_344_" class="st1" d="M69.8,8.1h0.6V6.2l1.2-1.8H71c0,0-0.8,1.1-0.8,1.2c0,0-0.8-1.2-0.8-1.2h-0.7
		c0,0,1.2,1.7,1.2,1.8L69.8,8.1L69.8,8.1z"/>
	<rect id="XMLID_343_" x="50.1" y="4.4" class="st1" width="0.6" height="3.7"/>
	<rect id="XMLID_342_" x="64.3" y="4.4" class="st1" width="0.6" height="3.7"/>
	<polygon id="XMLID_341_" class="st1" points="32.3,8.1 32.9,8.1 32.9,5 34,5 34,4.4 31.2,4.4 31.2,5 32.3,5 	"/>
	<polygon id="XMLID_340_" class="st1" points="66.7,8.1 67.3,8.1 67.3,5 68.4,5 68.4,4.4 65.6,4.4 65.6,5 66.7,5 	"/>
	<polygon id="XMLID_339_" class="st1" points="77.6,6.4 78.8,6.4 78.8,5.8 77.6,5.8 77.6,5 78.8,5 78.8,4.4 77,4.4 77,8 77.6,8 	"/>
	<path id="XMLID_464_" class="st1" d="M74.6,8.1c0.5,0,1-0.2,1.3-0.6c0.3-0.3,0.5-0.8,0.5-1.3s-0.2-1-0.5-1.3
		c-0.3-0.4-0.8-0.6-1.3-0.6c-0.5,0-0.9,0.2-1.3,0.6c-0.3,0.3-0.5,0.8-0.5,1.3s0.2,0.9,0.5,1.3C73.6,7.9,74.1,8.1,74.6,8.1z
		 M73.7,5.4C74,5.1,74.3,5,74.6,5c0.7,0,1.2,0.5,1.2,1.3c0,0.3-0.1,0.7-0.3,0.9c-0.2,0.2-0.5,0.4-0.8,0.4c-0.3,0-0.6-0.1-0.8-0.4
		c-0.2-0.2-0.3-0.6-0.3-0.9C73.4,5.9,73.5,5.6,73.7,5.4z"/>
	<path id="XMLID_461_" class="st1" d="M63.4,9.5h-0.7l-2.4,6.3h1c0,0,0.7-1.7,0.7-1.8c0,0,2.1,0,2.2,0c0,0,0.7,1.8,0.7,1.8h1
		L63.4,9.5z M62.4,13c0-0.1,0.6-1.7,0.7-1.8c0.1,0.1,0.7,1.7,0.7,1.8C63.7,13,62.5,13,62.4,13z"/>
	<polygon id="XMLID_334_" class="st1" points="59.4,14.8 57,14.8 57,9.6 56,9.6 56,15.8 59.4,15.8 	"/>
	<path id="XMLID_457_" class="st1" d="M32.9,14c0,0,2.1,0,2.2,0c0,0,0.7,1.8,0.7,1.8h1l-2.5-6.3h-0.7l-2.4,6.3h1
		C32.2,15.8,32.9,14.1,32.9,14z M33.9,11.2c0,0.1,0.7,1.7,0.7,1.8c-0.1,0-1.3,0-1.4,0C33.3,13,33.9,11.4,33.9,11.2z"/>
	<path id="XMLID_194_" class="st1" d="M48.6,15.3v-1.2l0,0l-0.1,0.1c-0.6,0.4-1.2,0.7-1.8,0.7c-0.6,0-1.1-0.2-1.5-0.6
		c-0.4-0.4-0.6-0.9-0.6-1.6c0-0.6,0.2-1.2,0.6-1.6c0.4-0.4,0.9-0.6,1.5-0.6c0.6,0,1.2,0.2,1.8,0.6l0.1,0.1l0,0L48.5,10h0
		c-0.8-0.3-1.3-0.5-1.9-0.5c-1.8,0-3.1,1.4-3.1,3.3c0,0.7,0.3,1.5,0.7,2c0.4,0.5,1.1,1.1,2.3,1.1C47.5,15.9,48.1,15.6,48.6,15.3
		L48.6,15.3z"/>
	<path id="XMLID_193_" class="st1" d="M52,12.5c0,0,2.4-2.9,2.4-2.9h-1.2c0,0-2,2.5-2.1,2.6c0-0.1,0-2.6,0-2.6h-1v6.2h1
		c0,0,0-2.7,0-2.8c0.1,0.1,2.6,2.8,2.6,2.8H55C55,15.8,52,12.6,52,12.5z"/>
	<path id="XMLID_452_" class="st1" d="M78.4,10.6c-0.5-0.7-1.3-1-2.3-1h-2.2v6.2h2.2c0.9,0,1.6-0.3,2.2-0.9c0.5-0.6,0.8-1.4,0.8-2.1
		C79.1,11.9,78.9,11.1,78.4,10.6z M76.1,14.8c0,0-1.1,0-1.1,0c0-0.1,0-4.2,0-4.2c0.1,0,1.1,0,1.1,0c0.7,0,1.2,0.2,1.6,0.6
		c0.3,0.4,0.5,0.9,0.5,1.5C78.1,13.5,77.7,14.8,76.1,14.8z"/>
	<path id="XMLID_185_" class="st1" d="M39.8,15.9c0.8,0,1.4-0.2,1.9-0.7c0.4-0.4,0.6-1.1,0.6-1.9V9.6h-1v3.6c0,0.6-0.1,1-0.3,1.2
		c-0.1,0.2-0.5,0.4-1.2,0.4c-0.4,0-0.8-0.1-1.1-0.5c-0.2-0.3-0.3-0.5-0.3-1.2V9.5h-1v3.9c0,0.8,0.3,1.4,0.7,1.9
		C38.6,15.7,39.2,15.9,39.8,15.9z"/>
	<path id="XMLID_184_" class="st1" d="M71.4,14c-0.1-0.1-3.5-4.5-3.5-4.5h-0.8v6.2H68c0,0,0-4.3,0-4.4c0.1,0.1,3.5,4.4,3.5,4.4h0.8
		V9.6h-0.9C71.4,9.6,71.4,13.9,71.4,14z"/>
	<polygon id="XMLID_183_" class="st1" points="33.1,23.9 31.6,22.1 31.2,22.1 31.2,24.6 31.7,24.6 31.7,22.8 33.2,24.6 33.6,24.6 
		33.6,22.1 33.1,22.1 	"/>
	<polygon id="XMLID_181_" class="st1" points="36.7,23.5 37.8,23.5 37.8,23.1 36.7,23.1 36.7,22.5 37.8,22.5 37.8,22.1 36.2,22.1 
		36.2,24.6 37.9,24.6 37.9,24.2 36.7,24.2 	"/>
	<polygon id="XMLID_177_" class="st1" points="43,23.7 42.3,22.1 41.9,22.1 41.2,23.6 40.6,22.1 40.1,22.1 41.1,24.6 41.3,24.6 
		42.1,22.8 42.9,24.6 43,24.6 44.1,22.1 43.6,22.1 	"/>
	<polygon id="XMLID_176_" class="st1" points="51.5,22.1 49.3,22.1 49.3,22.5 50.7,22.5 49.2,24.6 51.5,24.6 51.5,24.2 50,24.2 	"/>
	<polygon id="XMLID_175_" class="st1" points="54.4,23.5 55.5,23.5 55.5,23.1 54.4,23.1 54.4,22.5 55.6,22.5 55.6,22.1 53.9,22.1 
		53.9,24.6 55.6,24.6 55.6,24.2 54.4,24.2 	"/>
	<path id="XMLID_442_" class="st1" d="M58.8,22.1l-1,2.5h0.5l0.2-0.6h1.1l0.3,0.6h0.5l-1.1-2.5H58.8z M58.7,23.6l0.4-1l0.4,1H58.7z"
		/>
	<polygon id="XMLID_168_" class="st1" points="63.3,22.1 62.8,22.1 62.8,24.6 64.5,24.6 64.5,24.2 63.3,24.2 	"/>
	<path id="XMLID_438_" class="st1" d="M67.6,22.1l-1,2.5h0.5l0.2-0.6h1.1l0.3,0.6h0.5l-1.1-2.5H67.6z M67.5,23.6l0.4-1l0.4,1H67.5z"
		/>
	<polygon id="XMLID_161_" class="st1" points="73.5,23.9 72,22.1 71.6,22.1 71.6,24.6 72,24.6 72,22.8 73.6,24.6 74,24.6 74,22.1 
		73.5,22.1 	"/>
	<path id="XMLID_434_" class="st1" d="M78.3,22.2c-0.2-0.1-0.4-0.2-0.7-0.2h-1.1v2.5h1c0.3,0,0.5-0.1,0.7-0.2
		c0.2-0.1,0.4-0.3,0.5-0.4c0.1-0.2,0.2-0.4,0.2-0.7s-0.1-0.5-0.2-0.7C78.7,22.5,78.5,22.4,78.3,22.2z M78.2,24
		c-0.2,0.2-0.4,0.2-0.7,0.2H77v-1.8h0.5c0.3,0,0.5,0.1,0.7,0.2c0.2,0.2,0.3,0.4,0.3,0.6C78.5,23.6,78.4,23.8,78.2,24z"/>
	<rect id="XMLID_157_" x="31.2" y="20.8" class="st1" width="47.9" height="0.3"/>
	<g id="XMLID_108_">
		<path id="XMLID_152_" class="st1" d="M9.4,9.7L9.4,9.7c0.5,0,1,0.1,1.4,0.4l0,0l0.1,0c0.8,0.5,1.9,0.5,2.7,0l0,0l0,0
			c0.9-0.5,2-0.5,2.9,0l0,0c0.8,0.5,1.9,0.5,2.7,0l0,0c0.9-0.5,2-0.5,2.9,0c0.8,0.5,1.9,0.5,2.7,0c0.4-0.3,0.9-0.4,1.5-0.4V4.8H9.4
			V9.7z"/>
		<path id="XMLID_151_" class="st1" d="M17.8,19.2c0-0.1-0.1-0.1-0.1-0.1h-0.3c-0.1,0-0.1,0-0.1,0.1c0,0.1,0,0.1,0.1,0.1h0.9
			c0.1,0,0.1,0,0.1-0.1c0-0.1,0-0.1-0.1-0.1H18c0,0-0.1,0.1-0.1,0.1H17.8z"/>
		<path id="XMLID_150_" class="st1" d="M17.7,19.1c0,0,0.1,0.1,0.1,0.1h0.2c0-0.1,0.1-0.1,0.1-0.1H18v-0.2c0,0-0.1,0.1-0.1,0.1
			c0,0-0.1-0.1-0.1-0.1L17.7,19.1L17.7,19.1z"/>
		<polygon id="XMLID_149_" class="st1" points="14.9,11.6 14.5,10.3 14.1,11.6 12.7,11.6 13.8,12.4 13.4,13.6 14.5,12.8 15.5,13.6 
			15.1,12.4 16.2,11.6 		"/>
		<polygon id="XMLID_145_" class="st1" points="21.7,11.6 21.3,10.3 20.9,11.6 19.5,11.6 20.6,12.4 20.2,13.6 21.3,12.8 22.3,13.6 
			21.9,12.4 23,11.6 		"/>
		<polygon id="XMLID_144_" class="st1" points="18.2,21.4 17.9,20.1 17.5,21.4 16.1,21.4 17.2,22.2 16.8,23.4 17.9,22.6 18.9,23.4 
			18.5,22.2 19.6,21.4 		"/>
		<path id="XMLID_143_" class="st1" d="M9,4.4v8.9c0,0.7,0.3,2.7,1.4,4.8c1.5,2.9,4,5.1,7.4,6.5l0.1,0l0.1,0c7.2-3,8.8-9.1,8.8-11.2
			V4.4H9z"/>
		<path id="XMLID_139_" class="st0" d="M18.6,18.8l-0.1,0.1l0.1,0.1c0.1,0.1,0.1,0.1,0.1,0.2c0,0.1-0.1,0.3-0.3,0.3h-1.2
			c-0.1,0-0.3-0.1-0.3-0.3c0-0.1,0.1-0.2,0.1-0.2l0.1-0.1l-0.1-0.1c-0.3-0.2-0.6-0.3-0.9-0.3c-0.3,0-0.6,0.1-0.9,0.3
			c-0.3,0.2-0.6,0.3-1.1,0.3c-0.6,0-1.1-0.2-1.6-0.6l0,0h-0.3l0,0c0,0.1-0.1,0.1-0.2,0.1c-0.1,0-0.2-0.1-0.2-0.2s0.1-0.2,0.2-0.2
			c0.1,0,0.1,0,0.2,0.1l0,0h0.3v-0.4h-0.3l0,0c0,0.1-0.1,0.1-0.2,0.1c-0.1,0-0.2-0.1-0.2-0.2s0.1-0.2,0.2-0.2c0.1,0,0.1,0,0.2,0.1
			l0,0h0.3v-0.4h-0.3l0,0c0,0.1-0.1,0.1-0.2,0.1c-0.1,0-0.2-0.1-0.2-0.2S12,17,12.2,17c0.1,0,0.1,0,0.2,0.1l0,0h0.3v-0.4h-0.3l0,0
			c0,0.1-0.1,0.1-0.2,0.1c-0.1,0-0.2-0.1-0.2-0.2c0-0.1,0.1-0.2,0.2-0.2c0.1,0,0.1,0,0.2,0.1l0,0h0.3v-0.4h-0.3l0,0
			c0,0.1-0.1,0.1-0.2,0.1c-0.1,0-0.2-0.1-0.2-0.2s0.1-0.2,0.2-0.2c0.1,0,0.1,0,0.2,0.1l0,0h0.3v-0.4h-0.3l0,0c0,0.1-0.1,0.1-0.2,0.1
			c-0.1,0-0.2-0.1-0.2-0.2s0.1-0.2,0.2-0.2c0.1,0,0.1,0,0.2,0.1l0,0h0.3V15h-0.3l0,0c0,0.1-0.1,0.1-0.2,0.1c-0.1,0-0.2-0.1-0.2-0.2
			c0-0.1,0.1-0.2,0.2-0.2c0.1,0,0.1,0,0.2,0.1l0,0h0.3l0.3-0.1v3.7l0,0.1c0.8,0.5,1.6,0.6,2.3,0.1c0.8-0.4,1.8-0.4,2.4,0.5h-0.3
			c-0.1,0-0.1,0-0.1,0.1c0,0.1,0,0.1,0.1,0.1h0.9c0.1,0,0.1,0,0.1-0.1c0-0.1,0-0.1-0.1-0.1H18c0.6-0.9,1.7-0.8,2.4-0.5
			c0.7,0.3,1.4,0.3,2.3-0.1l0.1-0.1v-3.8l0.3,0.1h0.3l0,0c0-0.1,0.1-0.1,0.2-0.1c0.1,0,0.2,0.1,0.2,0.2c0,0.1-0.1,0.2-0.2,0.2
			c-0.1,0-0.1,0-0.2-0.1l0,0H23v0.4h0.3l0,0c0-0.1,0.1-0.1,0.2-0.1c0.1,0,0.2,0.1,0.2,0.2c0,0.1-0.1,0.2-0.2,0.2
			c-0.1,0-0.1,0-0.2-0.1l0,0H23v0.4h0.3l0,0c0-0.1,0.1-0.1,0.2-0.1c0.1,0,0.2,0.1,0.2,0.2s-0.1,0.2-0.2,0.2c-0.1,0-0.1,0-0.2-0.1
			l0,0H23v0.4h0.3l0,0c0-0.1,0.1-0.1,0.2-0.1c0.1,0,0.2,0.1,0.2,0.2c0,0.1-0.1,0.2-0.2,0.2c-0.1,0-0.1,0-0.2-0.1l0,0H23v0.4h0.3l0,0
			c0-0.1,0.1-0.1,0.2-0.1c0.1,0,0.2,0.1,0.2,0.2s-0.1,0.2-0.2,0.2c-0.1,0-0.1,0-0.2-0.1l0,0H23v0.4h0.3l0,0c0-0.1,0.1-0.1,0.2-0.1
			c0.1,0,0.2,0.1,0.2,0.2S23.7,18,23.5,18c-0.1,0-0.1,0-0.2-0.1l0,0H23v0.4h0.3l0,0c0-0.1,0.1-0.1,0.2-0.1c0.1,0,0.2,0.1,0.2,0.2
			c0,0.1-0.1,0.2-0.2,0.2c-0.1,0-0.1,0-0.2-0.1l0,0h-0.3l0,0c-0.5,0.4-0.9,0.6-1.6,0.6c-0.5,0-0.8-0.1-1.1-0.3
			C19.8,18.4,19.1,18.4,18.6,18.8z"/>
		<path id="XMLID_138_" class="st0" d="M13.3,18.3c0.6,0.3,1.1,0.4,1.9-0.1c0.9-0.5,1.9-0.2,2.5,0.4v0.3C17.1,18,16,18,15.2,18.5
			c-0.6,0.4-1.4,0.3-2.1-0.1v-3.9l0.2-0.1L13.3,18.3L13.3,18.3z"/>
		<path id="XMLID_137_" class="st0" d="M13.5,18.2v-3.9l0,0c0.7,0.1,1.2,0.1,1.8-0.2c0.8-0.3,1.6-0.2,2.4,0.3v3.9
			c-0.4-0.3-0.9-0.6-1.5-0.6c-0.3,0-0.7,0.1-1.1,0.3C14.4,18.5,14,18.4,13.5,18.2z"/>
		<path id="XMLID_135_" class="st0" d="M20.5,18.2c0.9,0.5,1.4,0.4,1.9,0.1l0.1,0v-3.9l0.2,0.1v3.9c-0.8,0.4-1.5,0.4-2.1,0.1
			c-0.8-0.4-1.9-0.5-2.6,0.4v-0.3C18.5,18.1,19.5,17.7,20.5,18.2z"/>
		<path id="XMLID_131_" class="st0" d="M18,18.4v-3.9c0.8-0.6,1.6-0.7,2.4-0.3c0.7,0.3,1.2,0.3,1.8,0.2l0,0v3.8
			c-0.5,0.3-0.9,0.3-1.7-0.1C19.6,17.6,18.6,17.8,18,18.4z"/>
		<polygon id="XMLID_130_" class="st0" points="22.3,13.6 21.3,12.8 20.2,13.6 20.6,12.4 19.5,11.6 20.9,11.6 21.3,10.3 21.7,11.6 
			23,11.6 21.9,12.4 		"/>
		<polygon id="XMLID_129_" class="st0" points="15.5,13.6 14.5,12.8 13.4,13.6 13.8,12.4 12.7,11.6 14.1,11.6 14.5,10.4 14.9,11.6 
			16.2,11.6 15.1,12.4 		"/>
		<polygon id="XMLID_125_" class="st0" points="16.8,23.4 17.2,22.2 16.1,21.4 17.5,21.4 17.9,20.1 18.3,21.4 19.6,21.4 18.5,22.2 
			18.9,23.4 17.9,22.6 		"/>
		<path id="XMLID_124_" class="st0" d="M26.3,9.8c-0.5,0-1,0.1-1.5,0.4c-0.8,0.5-1.9,0.5-2.7,0c-0.9-0.5-2-0.5-2.9,0l0,0
			c-0.8,0.5-1.9,0.5-2.7,0l0,0c-0.9-0.5-2-0.5-2.9,0l0,0l0,0c-0.8,0.5-1.9,0.5-2.7,0l-0.1,0l0,0c-0.4-0.2-0.9-0.4-1.4-0.4l0,0V4.8
			h16.9L26.3,9.8L26.3,9.8z"/>
		<path id="XMLID_123_" class="st1" d="M11.8,6c0.3-0.4,0.7-0.4,0.9-0.4c1.3,0,2,0.9,2,1.7c0,0.9-0.7,1.1-0.8,1.1c0,0,0,0.2,0.1,0.5
			c0,0,0,0,0,0.1c0,0,0,0.1,0,0.1c0,0,0,0,0,0.1c0,0.1,0,0.1-0.1,0.2c0,0.1,0,0.3,0,0.4c0,0,0,0,0,0c-0.1-0.1-0.1-0.2-0.2-0.3
			c-0.2,0-0.3,0.3-0.4,0.4c0,0,0,0,0,0c0,0,0-0.3,0.2-0.5c-0.1,0-0.3,0-0.3,0.1c0,0,0,0,0,0c0,0,0.1-0.2,0.4-0.2
			c0,0,0.1-0.1,0.1-0.2c0-0.1-0.1-0.3-0.2-0.4c0,0-0.3,0-0.4,0.1c0,0,0,0,0,0.1s0,0.1,0,0.1c0,0,0,0.1-0.1,0.1c0,0-0.3,0.1-0.4,0.2
			c0,0-0.1,0.1-0.2,0.2c0,0-0.1,0.1-0.2,0.2c0,0-0.1,0-0.1,0.1c0,0-0.1,0.1-0.1,0.1c0,0-0.1,0.1-0.2,0.2c0,0,0,0,0,0
			c0-0.1,0-0.1,0-0.1c0-0.1,0.1-0.2,0.2-0.3c0,0,0,0,0,0c-0.1,0-0.4,0-0.6,0.1c0,0,0,0,0,0c0-0.1,0.1-0.2,0.6-0.3
			c0,0-0.2-0.1-0.3-0.1c0,0,0,0,0,0c0,0,0.2-0.1,0.5,0.1c0,0,0.2-0.1,0.3-0.1c0.1-0.1,0.3-0.3,0.4-0.3c0,0,0-0.1,0-0.1h0
			c-0.1-0.2-0.1-0.4-0.1-0.6c-0.3,0-0.5-0.3-0.7-0.4c-0.2,0-0.6-0.2-0.8-0.6c-0.7,0.5-1.1,1.3-1.1,1.4c0,0,0,0,0,0
			C9.7,8.3,9.7,8.1,9.7,8c0.1-0.3,0.4-0.8,0.8-1.3c-0.1-0.7,0.6-1,0.8-1C11.6,5.8,11.8,6,11.8,6L11.8,6z"/>
		<path id="XMLID_413_" class="st0" d="M13.1,6.1C13.1,6.1,13.1,6.1,13.1,6.1c0-0.1,0.1-0.1,0.2-0.1c-0.4-0.2-0.6,0-0.6,0v0
			c0,0,0.1-0.1,0.2-0.2c-0.4,0-0.6,0.2-0.6,0.2v0c0,0,0-0.1,0.1-0.2c-0.4,0-0.7,0.5-0.7,0.5S11.7,6,11.4,6c-0.3,0-0.8,0.3-0.6,0.8
			C10.6,7,10.3,7.3,10,7.9c0,0,0,0,0,0c0.3-0.4,0.6-0.9,1-1.1c0,0,0.3,0.6,0.8,0.6c0.1,0,0.3,0.5,0.8,0.4c0,0.1,0,0.5,0.1,0.6l0,0
			c0,0,0,0,0,0c0,0,0.3-0.2,0.5-0.3c0,0,0.1-0.3,0.1-0.4c0.4-0.1,0.7-0.5,0.7-0.8C14,6.6,13.6,6.1,13.1,6.1z M10.9,6.7
			c-0.1,0-0.1-0.1-0.1-0.1c0-0.1,0.1-0.1,0.1-0.1C11,6.5,11,6.5,11,6.6C11,6.6,11,6.7,10.9,6.7z"/>
		<path id="XMLID_116_" class="st1" d="M17.4,6c0.3-0.4,0.7-0.4,0.9-0.4c1.3,0,2,0.9,2,1.7c0,0.9-0.7,1.1-0.8,1.1c0,0,0,0.2,0.1,0.5
			c0,0,0,0,0,0.1c0,0,0,0.1,0,0.1c0,0,0,0,0,0.1c0,0.1,0,0.1-0.1,0.2c0,0.1,0,0.3,0,0.4c0,0,0,0,0,0c-0.1-0.1-0.1-0.2-0.2-0.3
			c-0.2,0-0.3,0.3-0.4,0.4c0,0,0,0-0.1,0c0,0,0-0.3,0.2-0.5c-0.1,0-0.3,0-0.3,0.1c0,0,0,0,0,0c0,0,0.1-0.2,0.4-0.2
			c0,0,0.1-0.1,0.1-0.2c0-0.1-0.1-0.3-0.2-0.4c0,0-0.3,0-0.4,0.1c0,0,0,0,0,0.1s0,0.1,0,0.1c0,0,0,0.1-0.1,0.1c0,0-0.3,0.1-0.4,0.2
			c0,0-0.1,0.1-0.2,0.2c0,0-0.1,0.1-0.2,0.2c0,0-0.1,0-0.1,0.1c0,0-0.1,0.1-0.1,0.1c0,0-0.1,0.1-0.2,0.2c0,0,0,0,0,0
			c0-0.1,0-0.1,0-0.1c0-0.1,0.1-0.2,0.2-0.3c0,0,0,0,0,0c-0.1,0-0.4,0-0.6,0.1c0,0,0,0,0,0c0-0.1,0.1-0.2,0.6-0.3
			c0,0-0.2-0.1-0.3-0.1c0,0,0,0,0,0c0,0,0.2-0.1,0.5,0.1c0,0,0.2-0.1,0.3-0.1C17.8,9,18,8.8,18.1,8.8c0,0,0-0.1,0-0.1h0
			C18,8.5,18,8.2,18,8.1c-0.3,0-0.5-0.3-0.7-0.4c-0.2,0-0.6-0.2-0.8-0.6c-0.7,0.5-1.1,1.3-1.1,1.4c0,0,0,0,0,0
			c-0.1-0.1-0.1-0.3-0.1-0.4c0.1-0.3,0.4-0.8,0.8-1.3c-0.1-0.7,0.6-1,0.8-1C17.2,5.8,17.4,6,17.4,6L17.4,6z"/>
		<path id="XMLID_409_" class="st0" d="M18.7,6.1C18.7,6.1,18.7,6.1,18.7,6.1c0-0.1,0.1-0.1,0.2-0.1c-0.4-0.2-0.6,0-0.6,0v0
			c0,0,0.1-0.1,0.2-0.2c-0.4,0-0.6,0.2-0.6,0.2v0c0,0,0-0.1,0.1-0.2c-0.4,0-0.7,0.5-0.7,0.5S17.3,6,16.9,6c-0.3,0-0.8,0.3-0.6,0.8
			c-0.1,0.2-0.4,0.5-0.7,1.1c0,0,0,0,0,0c0.3-0.4,0.6-0.9,1-1.1c0,0,0.3,0.6,0.8,0.6c0.1,0,0.3,0.5,0.8,0.4c0,0.1,0,0.5,0.1,0.6l0,0
			c0,0,0,0,0,0c0,0,0.3-0.2,0.5-0.3c0,0,0.1-0.3,0.1-0.4c0.4-0.1,0.7-0.5,0.7-0.8C19.6,6.6,19.2,6.1,18.7,6.1z M16.5,6.7
			c-0.1,0-0.1-0.1-0.1-0.1c0-0.1,0.1-0.1,0.1-0.1s0.1,0.1,0.1,0.1C16.6,6.6,16.5,6.7,16.5,6.7z"/>
		<path id="XMLID_109_" class="st1" d="M22.9,6c0.3-0.4,0.7-0.4,0.9-0.4c1.3,0,2,0.9,2,1.7c0,0.9-0.7,1.1-0.8,1.1c0,0,0,0.2,0.1,0.5
			c0,0,0,0,0,0.1c0,0,0,0.1,0,0.1c0,0,0,0,0,0.1c0,0.1,0,0.1-0.1,0.2c0,0.1,0,0.3,0,0.4c0,0,0,0,0,0c-0.1-0.1-0.1-0.2-0.2-0.3
			c-0.2,0-0.3,0.3-0.4,0.4c0,0,0,0,0,0c0,0,0-0.3,0.2-0.5c-0.1,0-0.3,0-0.3,0.1c0,0,0,0,0,0c0,0,0.1-0.2,0.4-0.2
			c0,0,0.1-0.1,0.1-0.2c0-0.1-0.1-0.3-0.1-0.4c0,0-0.3,0-0.4,0.1c0,0,0,0,0,0.1s0,0.1,0,0.1c0,0,0,0.1-0.1,0.1c0,0-0.3,0.1-0.4,0.2
			c0,0-0.1,0.1-0.2,0.2c0,0-0.1,0.1-0.2,0.2c0,0-0.1,0-0.1,0.1c0,0-0.1,0.1-0.1,0.1c0,0-0.1,0.1-0.2,0.2c0,0,0,0,0,0
			c0-0.1,0-0.1,0-0.1c0-0.1,0.1-0.2,0.2-0.3c0,0,0,0,0,0c-0.1,0-0.4,0-0.6,0.1c0,0,0,0,0,0c0-0.1,0.1-0.2,0.6-0.3
			c0,0-0.2-0.1-0.3-0.1c0,0,0,0,0,0c0,0,0.2-0.1,0.5,0.1c0,0,0.2-0.1,0.3-0.1c0.1-0.1,0.3-0.3,0.4-0.3c0,0,0-0.1,0-0.1h0
			c-0.1-0.2-0.1-0.4-0.1-0.6c-0.3,0-0.5-0.3-0.7-0.4c-0.2,0-0.6-0.2-0.8-0.6c-0.7,0.5-1.1,1.3-1.1,1.4c0,0,0,0,0,0
			c-0.1-0.1-0.1-0.3-0.1-0.4c0.1-0.3,0.4-0.8,0.8-1.3c-0.1-0.7,0.6-1,0.8-1C22.7,5.8,22.9,6,22.9,6L22.9,6z"/>
		<path id="XMLID_403_" class="st0" d="M24.2,6.1C24.2,6.1,24.2,6.1,24.2,6.1c0-0.1,0.1-0.1,0.2-0.1c-0.4-0.2-0.7,0-0.6,0v0
			c0,0,0.1-0.1,0.2-0.2c-0.4,0-0.6,0.2-0.6,0.2v0c0,0,0-0.1,0.1-0.2c-0.4,0-0.7,0.5-0.7,0.5S22.8,6,22.4,6c-0.3,0-0.8,0.3-0.6,0.8
			c-0.1,0.2-0.5,0.5-0.8,1.1c0,0,0,0,0,0c0.3-0.4,0.6-0.9,1-1.1c0,0,0.3,0.6,0.8,0.6c0.1,0,0.3,0.5,0.8,0.4c0,0.1,0,0.5,0.1,0.6l0,0
			c0,0,0,0,0,0c0,0,0.3-0.2,0.5-0.3c0,0,0.1-0.3,0.1-0.4c0.4-0.1,0.7-0.5,0.7-0.8C25.1,6.6,24.7,6.1,24.2,6.1z M22,6.7
			c-0.1,0-0.1-0.1-0.1-0.1c0-0.1,0.1-0.1,0.1-0.1c0.1,0,0.1,0.1,0.1,0.1C22.1,6.6,22.1,6.7,22,6.7z"/>
	</g>
</g>
</svg>
